Coordinates
version=1
nRows=14
nColumns=36
inDegrees=yes

Units are S.I. units (second, meters, Newtons, ...)
If the header above contains a line with 'inDegrees', this indicates whether rotational values are in degrees (yes) or radians (no).

endheader
time	pelvis_tilt	pelvis_list	pelvis_rotation	pelvis_tx	pelvis_ty	pelvis_tz	hip_flexion_r	hip_adduction_r	hip_rotation_r	knee_angle_r	knee_angle_r_beta	ankle_angle_r	subtalar_angle_r	mtp_angle_r	hip_flexion_l	hip_adduction_l	hip_rotation_l	knee_angle_l	knee_angle_l_beta	ankle_angle_l	subtalar_angle_l	mtp_angle_l	lumbar_extension	lumbar_bending	lumbar_rotation	arm_flex_r	arm_add_r	arm_rot_r	elbow_flex_r	pro_sup_r	arm_flex_l	arm_add_l	arm_rot_l	elbow_flex_l	pro_sup_l
      2.25000000	     25.97008684	      5.35708143	      6.00827082	      0.11365772	      1.22529715	      0.17157516	    -29.67248540	      1.70330256	     -2.58958850	      1.37606325	      0.02401683	      9.52101291	    -13.23106236	     -7.49999987	    -29.86193348	      3.94332883	     -8.73749752	      3.41353136	      0.05957736	     16.75933400	      2.70534049	     -7.49999987	    -40.63404861	      0.25420027	      3.77609873	     12.91138426	     -4.87297737	      7.49376873	     22.16748333	     74.74381827	     10.47305573	     -4.38406509	     18.57209716	     22.80875809	     65.57499274
      2.26666670	     26.01344456	      5.34236155	      5.97562191	      0.11289614	      1.22790039	      0.17158978	    -29.67417962	      1.70092394	     -2.67927212	      1.44397553	      0.02520213	      9.50116989	    -13.15743969	     -7.49999987	    -29.86131447	      3.92866832	     -8.87940067	      3.46328611	      0.06044575	     16.71412286	      2.78949783	     -7.49999987	    -40.64509843	      0.26007007	      3.81865436	     12.91552794	     -4.88328707	      7.73808983	     22.14584211	     74.34770705	     10.43761837	     -4.37520921	     18.65048075	     22.78434491	     65.56697244
      2.28333330	     26.10866776	      5.33105791	      5.98442542	      0.11257203	      1.22745474	      0.17116947	    -29.68125742	      1.70417568	     -2.88277796	      1.55456657	      0.02713231	      9.63830555	    -12.93298145	     -7.49999987	    -29.86001876	      3.88585324	     -8.95585588	      3.64048278	      0.06353841	     16.65786875	      2.71330847	     -7.49999987	    -40.67271616	      0.31317991	      3.74340834	     13.13198363	     -5.13209621	     10.81741598	     21.90881541	     68.23987230	     10.40760467	     -4.52033520	     19.98787192	     22.86275211	     62.64539950
      2.30000000	     26.13623912	      5.29884318	      6.04771384	      0.11412374	      1.22761440	      0.17084930	    -29.69094951	      1.76330811	     -2.84151077	      1.69493454	      0.02958219	      9.35117521	    -13.34722733	     -7.49999987	    -29.85899466	      3.78309162	     -8.88072507	      3.82170397	      0.06670132	     16.75174133	      2.78467948	     -7.49999987	    -40.66925521	      0.39979897	      3.90159776	     12.88911680	     -4.84308342	      6.70216815	     22.21614297	     76.18234860	     10.39579240	     -4.22588253	     18.11728220	     22.67824609	     65.63385803
      2.31666670	     26.18168858	      5.23997992	      6.11424442	      0.11418007	      1.22869448	      0.17087798	    -29.69007810	      1.82643948	     -3.34296818	      1.91627266	      0.03344527	      9.76609034	    -12.61884342	     -7.49999987	    -29.85987798	      3.65191415	     -8.97824329	      4.04549691	      0.07060724	     16.96940955	      3.02459574	     -7.49999987	    -40.59494213	      0.52554397	      3.90211428	     12.98377832	     -4.95623304	      7.83201103	     22.00129503	     74.59054188	     10.36779517	     -4.22866114	     18.50343395	     22.58631428	     65.30915032
      2.33333330	     26.24367897	      5.13177465	      6.01814715	      0.11086261	      1.22957650	      0.17087345	    -29.68566944	      1.86239406	     -3.52413982	      1.98521168	      0.03464848	     10.18186999	    -11.76129755	     -7.49999987	    -29.86046527	      3.57882057	     -9.47312800	      4.13116345	      0.07210240	     17.25184941	      3.58085137	     -7.49999987	    -40.63734541	      0.59966186	      4.05874863	     12.96981100	     -4.92536143	      7.55247529	     22.11975413	     73.10934169	     10.33582278	     -4.05870008	     17.78490320	     22.60855772	     64.63719382
      2.35000000	     26.24679813	      5.15748883	      6.04599854	      0.11112552	      1.22796352	      0.17119062	    -29.69180355	      1.86231759	     -3.01955436	      1.86835749	      0.03260899	      9.62653369	    -12.76252160	     -7.49999987	    -29.85808393	      3.60248727	     -9.34414930	      4.09663452	      0.07149976	     17.22812831	      3.46424294	     -7.49999987	    -40.57617964	      0.57595677	      4.04736648	     13.07691873	     -5.02522648	      8.74322519	     21.85163831	     72.10297222	     10.42066190	     -4.18032554	     18.79569172	     22.46603256	     63.79499939
      2.36666670	     26.30799066	      5.14653776	      6.04982572	      0.11077313	      1.22732311	      0.17127405	    -29.69265687	      1.84903764	     -3.10987884	      1.92051713	      0.03351935	     10.01022983	    -12.26636329	     -7.49999987	    -29.85698781	      3.59413335	     -9.38303391	      4.18093939	      0.07297116	     17.34982559	      3.44590380	     -7.49999987	    -40.62014020	      0.59951199	      4.14000067	     13.06585781	     -5.00107793	      8.14871721	     21.80199750	     73.12840307	     10.52058309	     -4.08704974	     18.63133729	     22.38879316	     64.01934415
      2.38333330	     26.37918942	      5.17292676	      6.07174180	      0.11035477	      1.22714541	      0.17096512	    -29.69820524	      1.81370704	     -3.18206280	      2.01635262	      0.03519199	     10.20104730	    -12.14596266	     -7.49999987	    -29.85463339	      3.59705463	     -9.52278056	      4.26586440	      0.07445338	     17.43931140	      3.55791097	     -7.49999987	    -40.77588828	      0.61282671	      4.11643762	     13.09702724	     -5.00776074	      8.07259601	     21.98894223	     73.97263454	     10.55664676	     -4.15856690	     18.64349837	     22.46850506	     64.25794655
      2.40000000	     26.44170764	      5.17062748	      6.05941825	      0.11074114	      1.22715242	      0.17081225	    -29.69461543	      1.79052907	     -3.30237312	      2.16649287	      0.03781243	     10.41822470	    -11.87382513	     -7.49999987	    -29.85480459	      3.57537931	     -9.64558483	      4.35107815	      0.07594064	     17.58533523	      3.74140569	     -7.49999987	    -40.87665546	      0.62850028	      4.10559824	     13.15930881	     -5.10655381	      9.11176257	     22.06427205	     71.51732744	     10.54749243	     -4.18623852	     18.86445343	     22.54575125	     63.45169184
      2.41666670	     26.49824797	      5.20295726	      6.10158510	      0.11046210	      1.22817995	      0.17050253	    -29.69660063	      1.76367492	     -3.49132915	      2.30557569	      0.04023989	     10.61210249	    -11.64831021	     -7.49999987	    -29.85395728	      3.57301396	     -9.72490206	      4.44324539	      0.07754926	     17.74252111	      3.95153342	     -7.49999987	    -40.95141136	      0.61835907	      4.05914945	     13.12178163	     -5.00416498	      7.99332211	     22.09902894	     74.53370473	     10.59012775	     -4.15643338	     18.58104694	     22.42545529	     64.65473485
      2.43333330	     26.54529300	      5.18707950	      6.11118606	      0.11047816	      1.22806674	      0.17054521	    -29.69125852	      1.76844655	     -3.53804560	      2.42619988	      0.04234518	     10.86777847	    -11.46305696	     -7.49999987	    -29.85465527	      3.54251178	     -9.70382743	      4.54591547	      0.07934119	     17.79468206	      3.93055149	     -7.49999987	    -41.02700999	      0.66533853	      4.06939759	     13.15399616	     -5.01236412	      8.02313267	     22.11724891	     74.27300397	     10.56277230	     -4.11911573	     18.40231512	     22.54337583	     64.29594791
      2.45000000	     26.61139410	      5.15513843	      6.13644759	      0.10997461	      1.22719112	      0.17040970	    -29.68544604	      1.79472003	     -3.73274692	      2.52988813	      0.04415488	     11.21226286	    -11.07222329	     -7.49999987	    -29.85488801	      3.47819162	     -9.75663137	      4.65327122	      0.08121490	     17.91995085	      3.99620118	     -7.49999987	    -41.09545454	      0.71573917	      4.00623104	     13.16571820	     -5.01993243	      8.20427484	     22.17777446	     73.91302292	     10.55562547	     -4.10918100	     18.35022288	     22.55103118	     64.24158974
      2.46666670	     26.64841594	      5.08695879	      6.05837528	      0.11051623	      1.22853312	      0.17019658	    -29.67852216	      1.81152705	     -3.53201977	      2.55604002	      0.04461131	     11.17491259	    -11.22554396	     -7.49999987	    -29.85629324	      3.42747009	    -10.03972959	      4.72566454	      0.08247841	     18.05880722	      4.29858492	     -7.49999987	    -41.09119658	      0.74842697	      4.00483196	     13.18584217	     -5.02712059	      8.43004555	     22.18248374	     73.30969325	     10.51583724	     -4.08317935	     18.34633684	     22.51383045	     63.80605022
